<?xml version="1.0" encoding="utf-8"?>
<!-- Generator: Adobe Illustrator 25.0.1, SVG Export Plug-In . SVG Version: 6.00 Build 0)  -->
<svg version="1.1" id="Layer_1" xmlns="http://www.w3.org/2000/svg" xmlns:xlink="http://www.w3.org/1999/xlink" x="0px" y="0px"
	 viewBox="0 0 512 512" style="enable-background:new 0 0 512 512;" xml:space="preserve">
<style type="text/css">
	.st0{fill:#2787F5;}
	.st1{fill-rule:evenodd;clip-rule:evenodd;fill:#FFFFFF;}
</style>
<path class="st0" d="M0,245.3C0,129.7,0,71.9,35.9,35.9S129.7,0,245.3,0h21.3c115.7,0,173.5,0,209.4,35.9
	C512,71.9,512,129.7,512,245.3v21.3c0,115.7,0,173.5-35.9,209.4C440.1,512,382.3,512,266.7,512h-21.3c-115.7,0-173.5,0-209.4-35.9
	C0,440.1,0,382.3,0,266.7L0,245.3z"/>
<path class="st1" d="M138.7,160h-37.3c-10.7,0-12.8,5-12.8,10.6c0,9.9,12.7,58.9,58.9,123.8c30.9,44.3,74.3,68.3,113.9,68.3
	c23.7,0,26.7-5.3,26.7-14.5v-33.5c0-10.7,2.2-12.8,9.8-12.8c5.5,0,15,2.8,37.2,24.1c25.3,25.3,29.5,36.7,43.7,36.7h37.3
	c10.7,0,16-5.3,12.9-15.9c-3.4-10.5-15.5-25.7-31.5-43.8c-8.7-10.3-21.8-21.4-25.7-26.9c-5.5-7.1-4-10.3,0-16.6
	c0,0,45.5-64.1,50.2-85.8c2.4-7.9,0-13.7-11.3-13.7h-37.3c-9.5,0-13.9,5-16.2,10.6c0,0-19,46.3-45.9,76.3
	c-8.7,8.7-12.7,11.5-17.4,11.5c-2.4,0-5.8-2.8-5.8-10.7v-74c0-9.5-2.8-13.7-10.7-13.7h-58.7c-5.9,0-9.5,4.4-9.5,8.6
	c0,9,13.5,11.1,14.8,36.4v55c0,12.1-2.2,14.2-6.9,14.2c-12.7,0-43.5-46.5-61.7-99.7C151.8,164.2,148.2,160,138.7,160z"/>
</svg>
